<svg xmlns="http://www.w3.org/2000/svg" width="1440" height="900"><path d="M1006,407L959,635L1319,659Z" fill="#eae9ea" stroke="#eae9ea" stroke-width="1.51"/><path d="M1319,659L1321,222L1006,407Z" fill="#eaeaeb" stroke="#eaeaeb" stroke-width="1.51"/><path d="M1319,659L1602,608L1321,222Z" fill="#e9e9e9" stroke="#e9e9e9" stroke-width="1.51"/><path d="M959,635L835,953L1319,659Z" fill="#e9e9e9" stroke="#e9e9e9" stroke-width="1.51"/><path d="M1319,659L1631,1037L1602,608Z" fill="#e7e7e7" stroke="#e7e7e7" stroke-width="1.51"/><path d="M688,842L835,953L959,635Z" fill="#e9e9ea" stroke="#e9e9ea" stroke-width="1.51"/><path d="M1321,222L1025,45L1006,407Z" fill="#eeeeee" stroke="#eeeeee" stroke-width="1.51"/><path d="M545,723L688,842L959,635Z" fill="#eaeaea" stroke="#eaeaea" stroke-width="1.51"/><path d="M545,723L959,635L1006,407Z" fill="#eaeaeb" stroke="#eaeaeb" stroke-width="1.51"/><path d="M1321,222L1351,-108L1025,45Z" fill="#f1f1f1" stroke="#f1f1f1" stroke-width="1.51"/><path d="M1503,117L1444,87L1321,222Z" fill="#eeeeef" stroke="#eeeeef" stroke-width="1.51"/><path d="M1602,608L1503,117L1321,222Z" fill="#ebebec" stroke="#ebebec" stroke-width="1.51"/><path d="M835,953L1320,1134L1319,659Z" fill="#e8e8e8" stroke="#e8e8e8" stroke-width="1.51"/><path d="M560,63L545,723L1006,407Z" fill="#ececed" stroke="#ececed" stroke-width="1.51"/><path d="M1320,1134L1631,1037L1319,659Z" fill="#e7e7e7" stroke="#e7e7e7" stroke-width="1.51"/><path d="M1503,117L1351,-108L1444,87Z" fill="#f0f0f1" stroke="#f0f0f1" stroke-width="1.51"/><path d="M1444,87L1351,-108L1321,222Z" fill="#f0f0f0" stroke="#f0f0f0" stroke-width="1.51"/><path d="M1025,45L560,63L1006,407Z" fill="#efeff0" stroke="#efeff0" stroke-width="1.51"/><path d="M742,-594L560,63L1025,45Z" fill="#f4f4f5" stroke="#f4f4f5" stroke-width="1.51"/><path d="M1972,486L1859,165L1602,608Z" fill="#e8e8e8" stroke="#e8e8e8" stroke-width="1.51"/><path d="M1602,608L1859,165L1503,117Z" fill="#ebebeb" stroke="#ebebeb" stroke-width="1.51"/><path d="M1503,117L1850,-102L1351,-108Z" fill="#f1f1f1" stroke="#f1f1f1" stroke-width="1.51"/><path d="M1631,1037L1972,486L1602,608Z" fill="#e7e7e7" stroke="#e7e7e7" stroke-width="1.51"/><path d="M725,1493L835,953L578,1469Z" fill="#e7e7e7" stroke="#e7e7e7" stroke-width="1.51"/><path d="M725,1493L1236,1386L835,953Z" fill="#e7e7e7" stroke="#e7e7e7" stroke-width="1.51"/><path d="M835,953L1236,1386L1320,1134Z" fill="#e7e7e7" stroke="#e7e7e7" stroke-width="1.51"/><path d="M1320,1134L1684,1309L1631,1037Z" fill="#e5e5e5" stroke="#e5e5e5" stroke-width="1.51"/><path d="M560,63L372,196L545,723Z" fill="#f1f0f1" stroke="#f1f0f1" stroke-width="1.51"/><path d="M560,63L353,97L372,196Z" fill="#f5f5f6" stroke="#f5f5f6" stroke-width="1.51"/><path d="M274,-238L353,97L560,63Z" fill="#f8f8f9" stroke="#f8f8f9" stroke-width="1.51"/><path d="M1631,1037L2105,1107L1972,486Z" fill="#e5e5e5" stroke="#e5e5e5" stroke-width="1.51"/><path d="M1236,1386L1684,1309L1320,1134Z" fill="#e5e5e5" stroke="#e5e5e5" stroke-width="1.51"/><path d="M1351,-108L1234,-381L1025,45Z" fill="#f3f3f3" stroke="#f3f3f3" stroke-width="1.51"/><path d="M1727,-429L1234,-381L1351,-108Z" fill="#f1f1f1" stroke="#f1f1f1" stroke-width="1.51"/><path d="M1859,165L1850,-102L1503,117Z" fill="#efefef" stroke="#efefef" stroke-width="1.51"/><path d="M1923,-367L1850,-102L1859,165Z" fill="#f1f1f1" stroke="#f1f1f1" stroke-width="1.51"/><path d="M1236,1386L2036,1304L1684,1309Z" fill="#e4e4e4" stroke="#e4e4e4" stroke-width="1.51"/><path d="M314,1181L835,953L688,842Z" fill="#eaeaeb" stroke="#eaeaeb" stroke-width="1.51"/><path d="M314,1181L688,842L545,723Z" fill="#ececec" stroke="#ececec" stroke-width="1.51"/><path d="M28,817L314,1181L545,723Z" fill="#efefef" stroke="#efefef" stroke-width="1.51"/><path d="M82,502L545,723L372,196Z" fill="#f0f0f1" stroke="#f0f0f1" stroke-width="1.51"/><path d="M353,97L82,502L372,196Z" fill="#f4f4f5" stroke="#f4f4f5" stroke-width="1.51"/><path d="M314,1181L578,1469L835,953Z" fill="#eaeaea" stroke="#eaeaea" stroke-width="1.51"/><path d="M2036,1304L2105,1107L1631,1037Z" fill="#e4e4e4" stroke="#e4e4e4" stroke-width="1.51"/><path d="M1972,486L1923,-367L1859,165Z" fill="#ededed" stroke="#ededed" stroke-width="1.51"/><path d="M1850,-102L1727,-429L1351,-108Z" fill="#f1f1f1" stroke="#f1f1f1" stroke-width="1.51"/><path d="M82,502L28,817L545,723Z" fill="#f1f1f1" stroke="#f1f1f1" stroke-width="1.51"/><path d="M1684,1309L2036,1304L1631,1037Z" fill="#e4e4e4" stroke="#e4e4e4" stroke-width="1.51"/><path d="M725,1493L2036,1304L1236,1386Z" fill="#e5e5e5" stroke="#e5e5e5" stroke-width="1.51"/><path d="M742,-594L274,-238L560,63Z" fill="#f6f6f7" stroke="#f6f6f7" stroke-width="1.51"/><path d="M-312,301L-76,501L82,502Z" fill="#f5f5f5" stroke="#f5f5f5" stroke-width="1.51"/><path d="M1850,-102L1923,-367L1727,-429Z" fill="#f0f0f0" stroke="#f0f0f0" stroke-width="1.51"/><path d="M2105,1107L1923,-367L1972,486Z" fill="#e7e7e7" stroke="#e7e7e7" stroke-width="1.51"/><path d="M1234,-381L742,-594L1025,45Z" fill="#f2f2f3" stroke="#f2f2f3" stroke-width="1.51"/><path d="M1727,-429L742,-594L1234,-381Z" fill="#f0f0f0" stroke="#f0f0f0" stroke-width="1.51"/><path d="M-312,301L82,502L353,97Z" fill="#f7f7f7" stroke="#f7f7f7" stroke-width="1.51"/><path d="M82,502L-76,501L28,817Z" fill="#f4f4f5" stroke="#f4f4f5" stroke-width="1.51"/><path d="M274,-238L-142,-165L353,97Z" fill="#fcfcfd" stroke="#fcfcfd" stroke-width="1.51"/><path d="M368,-548L221,-367L274,-238Z" fill="#f9f9f9" stroke="#f9f9f9" stroke-width="1.51"/><path d="M742,-594L368,-548L274,-238Z" fill="#f6f6f6" stroke="#f6f6f6" stroke-width="1.51"/><path d="M28,817L-167,1199L314,1181Z" fill="#f1f1f1" stroke="#f1f1f1" stroke-width="1.51"/><path d="M314,1181L-167,1199L578,1469Z" fill="#eeeeee" stroke="#eeeeee" stroke-width="1.51"/><path d="M-294,1143L-167,1199L28,817Z" fill="#f1f1f1" stroke="#f1f1f1" stroke-width="1.51"/><path d="M-412,762L-294,1143L28,817Z" fill="#f2f2f2" stroke="#f2f2f2" stroke-width="1.51"/><path d="M221,-367L-142,-165L274,-238Z" fill="#fcfcfc" stroke="#fcfcfc" stroke-width="1.51"/><path d="M-406,-172L-142,-165L-333,-466Z" fill="#fcfcfc" stroke="#fcfcfc" stroke-width="1.51"/><path d="M-142,-165L-312,301L353,97Z" fill="#fcfcfc" stroke="#fcfcfc" stroke-width="1.51"/><path d="M-412,762L28,817L-76,501Z" fill="#f3f3f3" stroke="#f3f3f3" stroke-width="1.51"/><path d="M-312,301L-412,762L-76,501Z" fill="#f3f3f3" stroke="#f3f3f3" stroke-width="1.51"/><path d="M-312,301L-407,252L-412,762Z" fill="#f3f3f3" stroke="#f3f3f3" stroke-width="1.51"/><path d="M-142,-165L-407,252L-312,301Z" fill="#f9f9f9" stroke="#f9f9f9" stroke-width="1.51"/><path d="M-142,-165L-406,-172L-407,252Z" fill="#fcfcfc" stroke="#fcfcfc" stroke-width="1.51"/><path d="M-407,252L-689,1031L-412,762Z" fill="#f1f1f1" stroke="#f1f1f1" stroke-width="1.51"/><path d="M-333,-466L-142,-165L221,-367Z" fill="#fcfcfc" stroke="#fcfcfc" stroke-width="1.51"/><path d="M-458,-545L-333,-466L368,-548Z" fill="#fbfbfb" stroke="#fbfbfb" stroke-width="1.51"/><path d="M368,-548L-333,-466L221,-367Z" fill="#fbfbfb" stroke="#fbfbfb" stroke-width="1.51"/><path d="M-412,762L-689,1031L-294,1143Z" fill="#f0f0f0" stroke="#f0f0f0" stroke-width="1.51"/><path d="M-294,1143L-598,1486L-167,1199Z" fill="#efefef" stroke="#efefef" stroke-width="1.51"/><path d="M-167,1199L-598,1486L578,1469Z" fill="#f0f0f0" stroke="#f0f0f0" stroke-width="1.51"/><path d="M-406,-172L-689,1031L-407,252Z" fill="#f3f3f4" stroke="#f3f3f4" stroke-width="1.51"/><path d="M-406,-172L-458,-545L-689,1031Z" fill="#f8f8f8" stroke="#f8f8f8" stroke-width="1.51"/><path d="M-333,-466L-458,-545L-406,-172Z" fill="#fafafa" stroke="#fafafa" stroke-width="1.51"/><path d="M742,-594L-458,-545L368,-548Z" fill="#f8f8f8" stroke="#f8f8f8" stroke-width="1.51"/><path d="M-689,1031L-598,1486L-294,1143Z" fill="#eeeeee" stroke="#eeeeee" stroke-width="1.51"/><path d="M578,1469L-598,1486L725,1493Z" fill="#ededed" stroke="#ededed" stroke-width="1.51"/></svg>